<svg width="400" height="400" viewBox="0 0 400 400" xmlns="http://www.w3.org/2000/svg">
<defs>
    <filter id="shadow" x="-20%" y="-20%" width="140%" height="140%">
        <feDropShadow dx="2" dy="4" stdDeviation="3" flood-opacity="0.3"/>
    </filter>
    <filter id="glow" x="-50%" y="-50%" width="200%" height="200%">
        <feGaussianBlur stdDeviation="8" result="blur"/>
        <feMerge><feMergeNode in="blur"/><feMergeNode in="SourceGraphic"/></feMerge>
    </filter>
    <linearGradient id="rainbow-body" x1="0%" y1="0%" x2="100%" y2="100%">
        <stop offset="0%" stop-color="#FF6B6B"/><stop offset="25%" stop-color="#FFE66D"/>
        <stop offset="50%" stop-color="#4ECDC4"/><stop offset="75%" stop-color="#45B7D1"/>
        <stop offset="100%" stop-color="#DDA0DD"/>
    </linearGradient>
    <radialGradient id="galaxy-body" cx="30%" cy="30%">
        <stop offset="0%" stop-color="#E6E6FA"/><stop offset="50%" stop-color="#9370DB"/>
        <stop offset="100%" stop-color="#1A0033"/>
    </radialGradient>
    <linearGradient id="holo-body" x1="0%" y1="0%" x2="100%" y2="100%">
        <stop offset="0%" stop-color="#FF00FF"/><stop offset="50%" stop-color="#00FFFF"/>
        <stop offset="100%" stop-color="#FFFF00"/>
    </linearGradient>
    <linearGradient id="sky-gradient" x1="0%" y1="0%" x2="0%" y2="100%">
        <stop offset="0%" stop-color="#87CEEB"/><stop offset="100%" stop-color="#E0F4FF"/>
    </linearGradient>
    <linearGradient id="grass-gradient" x1="0%" y1="0%" x2="0%" y2="100%">
        <stop offset="0%" stop-color="#90EE90"/><stop offset="100%" stop-color="#228B22"/>
    </linearGradient>
    <linearGradient id="sunset-gradient" x1="0%" y1="0%" x2="0%" y2="100%">
        <stop offset="0%" stop-color="#FF6B6B"/><stop offset="50%" stop-color="#FFE66D"/>
        <stop offset="100%" stop-color="#4ECDC4"/>
    </linearGradient>
    <linearGradient id="aurora-gradient" x1="0%" y1="0%" x2="100%" y2="100%">
        <stop offset="0%" stop-color="#0D1B2A"/><stop offset="30%" stop-color="#00FF7F"/>
        <stop offset="70%" stop-color="#FF00FF"/><stop offset="100%" stop-color="#0D1B2A"/>
    </linearGradient>
    <radialGradient id="multiverse-gradient" cx="50%" cy="50%">
        <stop offset="0%" stop-color="#FFD700"/><stop offset="40%" stop-color="#FF00FF"/>
        <stop offset="70%" stop-color="#00FFFF"/><stop offset="100%" stop-color="#000"/>
    </radialGradient>
    <linearGradient id="rift-gradient" x1="0%" y1="0%" x2="100%" y2="100%">
        <stop offset="0%" stop-color="#000"/><stop offset="30%" stop-color="#9400D3"/>
        <stop offset="50%" stop-color="#00FFFF"/><stop offset="70%" stop-color="#9400D3"/>
        <stop offset="100%" stop-color="#000"/>
    </linearGradient>
    <linearGradient id="heaven-gradient" x1="0%" y1="0%" x2="0%" y2="100%">
        <stop offset="0%" stop-color="#FFF"/><stop offset="50%" stop-color="#FFD700" stop-opacity="0.3"/>
        <stop offset="100%" stop-color="#F0F8FF"/>
    </linearGradient>
    <clipPath id="head-clip"><ellipse cx="200" cy="200" rx="110" ry="115"/></clipPath>
</defs>
<rect width="400" height="400" fill="#2C3E50"/>
<rect x="0" y="309" width="50" height="91" fill="#1A202C"/>
<rect x="22" y="319" width="6" height="8" fill="#FFD700" opacity="0.6"/>
<rect x="36" y="319" width="6" height="8" fill="#FFD700" opacity="0.6"/>
<rect x="22" y="337" width="6" height="8" fill="#FFD700" opacity="0.6"/>
<rect x="36" y="337" width="6" height="8" fill="#FFD700" opacity="0.6"/>
<rect x="22" y="355" width="6" height="8" fill="#FFD700" opacity="0.6"/>
<rect x="36" y="355" width="6" height="8" fill="#FFD700" opacity="0.6"/>
<rect x="22" y="373" width="6" height="8" fill="#FFD700" opacity="0.6"/>
<rect x="36" y="373" width="6" height="8" fill="#FFD700" opacity="0.6"/>
<rect x="60" y="288" width="50" height="112" fill="#1A202C"/>
<rect x="68" y="298" width="6" height="8" fill="#FFD700" opacity="0.6"/>
<rect x="96" y="298" width="6" height="8" fill="#FFD700" opacity="0.6"/>
<rect x="68" y="316" width="6" height="8" fill="#FFD700" opacity="0.6"/>
<rect x="96" y="316" width="6" height="8" fill="#FFD700" opacity="0.6"/>
<rect x="68" y="334" width="6" height="8" fill="#FFD700" opacity="0.6"/>
<rect x="96" y="334" width="6" height="8" fill="#FFD700" opacity="0.6"/>
<rect x="68" y="352" width="6" height="8" fill="#FFD700" opacity="0.6"/>
<rect x="96" y="352" width="6" height="8" fill="#FFD700" opacity="0.6"/>
<rect x="68" y="370" width="6" height="8" fill="#FFD700" opacity="0.6"/>
<rect x="96" y="370" width="6" height="8" fill="#FFD700" opacity="0.6"/>
<rect x="68" y="388" width="6" height="8" fill="#FFD700" opacity="0.6"/>
<rect x="96" y="388" width="6" height="8" fill="#FFD700" opacity="0.6"/>
<rect x="120" y="267" width="50" height="133" fill="#1A202C"/>
<rect x="128" y="277" width="6" height="8" fill="#FFD700" opacity="0.6"/>
<rect x="142" y="277" width="6" height="8" fill="#FFD700" opacity="0.6"/>
<rect x="128" y="295" width="6" height="8" fill="#FFD700" opacity="0.6"/>
<rect x="142" y="295" width="6" height="8" fill="#FFD700" opacity="0.6"/>
<rect x="128" y="313" width="6" height="8" fill="#FFD700" opacity="0.6"/>
<rect x="142" y="313" width="6" height="8" fill="#FFD700" opacity="0.6"/>
<rect x="128" y="331" width="6" height="8" fill="#FFD700" opacity="0.6"/>
<rect x="142" y="331" width="6" height="8" fill="#FFD700" opacity="0.6"/>
<rect x="128" y="349" width="6" height="8" fill="#FFD700" opacity="0.6"/>
<rect x="142" y="349" width="6" height="8" fill="#FFD700" opacity="0.6"/>
<rect x="128" y="367" width="6" height="8" fill="#FFD700" opacity="0.6"/>
<rect x="142" y="367" width="6" height="8" fill="#FFD700" opacity="0.6"/>
<rect x="128" y="385" width="6" height="8" fill="#FFD700" opacity="0.6"/>
<rect x="142" y="385" width="6" height="8" fill="#FFD700" opacity="0.6"/>
<rect x="180" y="246" width="50" height="154" fill="#1A202C"/>
<rect x="202" y="256" width="6" height="8" fill="#FFD700" opacity="0.6"/>
<rect x="216" y="256" width="6" height="8" fill="#FFD700" opacity="0.6"/>
<rect x="202" y="274" width="6" height="8" fill="#FFD700" opacity="0.6"/>
<rect x="216" y="274" width="6" height="8" fill="#FFD700" opacity="0.6"/>
<rect x="202" y="292" width="6" height="8" fill="#FFD700" opacity="0.6"/>
<rect x="216" y="292" width="6" height="8" fill="#FFD700" opacity="0.6"/>
<rect x="202" y="310" width="6" height="8" fill="#FFD700" opacity="0.6"/>
<rect x="216" y="310" width="6" height="8" fill="#FFD700" opacity="0.6"/>
<rect x="202" y="328" width="6" height="8" fill="#FFD700" opacity="0.6"/>
<rect x="216" y="328" width="6" height="8" fill="#FFD700" opacity="0.6"/>
<rect x="202" y="346" width="6" height="8" fill="#FFD700" opacity="0.6"/>
<rect x="216" y="346" width="6" height="8" fill="#FFD700" opacity="0.6"/>
<rect x="202" y="364" width="6" height="8" fill="#FFD700" opacity="0.6"/>
<rect x="216" y="364" width="6" height="8" fill="#FFD700" opacity="0.6"/>
<rect x="202" y="382" width="6" height="8" fill="#FFD700" opacity="0.6"/>
<rect x="216" y="382" width="6" height="8" fill="#FFD700" opacity="0.6"/>
<rect x="240" y="315" width="50" height="85" fill="#1A202C"/>
<rect x="248" y="325" width="6" height="8" fill="#FFD700" opacity="0.6"/>
<rect x="276" y="325" width="6" height="8" fill="#FFD700" opacity="0.6"/>
<rect x="248" y="343" width="6" height="8" fill="#FFD700" opacity="0.6"/>
<rect x="276" y="343" width="6" height="8" fill="#FFD700" opacity="0.6"/>
<rect x="248" y="361" width="6" height="8" fill="#FFD700" opacity="0.6"/>
<rect x="276" y="361" width="6" height="8" fill="#FFD700" opacity="0.6"/>
<rect x="248" y="379" width="6" height="8" fill="#FFD700" opacity="0.6"/>
<rect x="276" y="379" width="6" height="8" fill="#FFD700" opacity="0.6"/>
<rect x="300" y="294" width="50" height="106" fill="#1A202C"/>
<rect x="308" y="304" width="6" height="8" fill="#FFD700" opacity="0.6"/>
<rect x="322" y="304" width="6" height="8" fill="#FFD700" opacity="0.6"/>
<rect x="308" y="322" width="6" height="8" fill="#FFD700" opacity="0.6"/>
<rect x="322" y="322" width="6" height="8" fill="#FFD700" opacity="0.6"/>
<rect x="308" y="340" width="6" height="8" fill="#FFD700" opacity="0.6"/>
<rect x="322" y="340" width="6" height="8" fill="#FFD700" opacity="0.6"/>
<rect x="308" y="358" width="6" height="8" fill="#FFD700" opacity="0.6"/>
<rect x="322" y="358" width="6" height="8" fill="#FFD700" opacity="0.6"/>
<rect x="308" y="376" width="6" height="8" fill="#FFD700" opacity="0.6"/>
<rect x="322" y="376" width="6" height="8" fill="#FFD700" opacity="0.6"/>
<rect x="360" y="273" width="50" height="127" fill="#1A202C"/>
<rect x="382" y="283" width="6" height="8" fill="#FFD700" opacity="0.6"/>
<rect x="396" y="283" width="6" height="8" fill="#FFD700" opacity="0.6"/>
<rect x="382" y="301" width="6" height="8" fill="#FFD700" opacity="0.6"/>
<rect x="396" y="301" width="6" height="8" fill="#FFD700" opacity="0.6"/>
<rect x="382" y="319" width="6" height="8" fill="#FFD700" opacity="0.6"/>
<rect x="396" y="319" width="6" height="8" fill="#FFD700" opacity="0.6"/>
<rect x="382" y="337" width="6" height="8" fill="#FFD700" opacity="0.6"/>
<rect x="396" y="337" width="6" height="8" fill="#FFD700" opacity="0.6"/>
<rect x="382" y="355" width="6" height="8" fill="#FFD700" opacity="0.6"/>
<rect x="396" y="355" width="6" height="8" fill="#FFD700" opacity="0.6"/>
<rect x="382" y="373" width="6" height="8" fill="#FFD700" opacity="0.6"/>
<rect x="396" y="373" width="6" height="8" fill="#FFD700" opacity="0.6"/>

<ellipse cx="115" cy="140" rx="45" ry="50" fill="#CD7F32" filter="url(#shadow)"/>
<ellipse cx="115" cy="140" rx="30" ry="35" fill="#FFB6C1"/>
<ellipse cx="115" cy="145" rx="18" ry="22" fill="#FF9999"/>
<ellipse cx="285" cy="140" rx="45" ry="50" fill="#CD7F32" filter="url(#shadow)"/>
<ellipse cx="285" cy="140" rx="30" ry="35" fill="#FFB6C1"/>
<ellipse cx="285" cy="145" rx="18" ry="22" fill="#FF9999"/>
<ellipse cx="200" cy="200" rx="110" ry="115" fill="#CD7F32" filter="url(#shadow)"/>
<ellipse cx="180" cy="140" rx="50" ry="30" fill="#DAA06D" opacity="0.3"/>
<g clip-path="url(#head-clip)"><ellipse cx="175" cy="185" rx="45" ry="35" fill="#FF00FF" opacity="0.12"/><ellipse cx="230" cy="225" rx="40" ry="30" fill="#00FFFF" opacity="0.12"/></g>
<ellipse cx="200" cy="235" rx="70" ry="60" fill="#FFDAB9"/>
<ellipse cx="200" cy="250" rx="55" ry="40" fill="#DEB887" opacity="0.3"/>
<ellipse cx="162" cy="185" rx="22" ry="24" fill="#000" opacity="0.08"/>
<ellipse cx="238" cy="185" rx="22" ry="24" fill="#000" opacity="0.08"/>
<ellipse cx="162" cy="185" rx="18" ry="20" fill="white"/>
<circle cx="162" cy="185" r="12" fill="#3D2314"/>
<circle cx="162" cy="185" r="6" fill="#000"/>
<circle cx="166" cy="181" r="4" fill="white"/>
<ellipse cx="238" cy="185" rx="18" ry="20" fill="white"/>
<circle cx="238" cy="185" r="12" fill="#3D2314"/>
<circle cx="238" cy="185" r="6" fill="#000"/>
<circle cx="242" cy="181" r="4" fill="white"/>
<g>
            <ellipse cx="200" cy="230" rx="25" ry="18" fill="#8B4513"/>
            <ellipse cx="200" cy="230" rx="22" ry="15" fill="#A0522D"/>
            <ellipse cx="192" cy="230" rx="5" ry="7" fill="#5D2E0C"/>
            <ellipse cx="208" cy="230" rx="5" ry="7" fill="#5D2E0C"/>
        </g>
<path d="M170 260 Q200 285 230 260" stroke="#5D2E0C" stroke-width="4" fill="none"/>
<ellipse cx="130" cy="130" rx="20" ry="15" fill="#FF69B4"/><ellipse cx="130" cy="130" rx="8" ry="8" fill="#FF1493"/><polygon points="130,115 145,130 130,145" fill="#FF69B4"/>
<circle cx="200" cy="200" r="135" fill="none" stroke="#FFD700" stroke-width="6" opacity="0.25"/>
<g transform="translate(325, 15)">
            <rect width="65" height="22" rx="4" fill="#A0A0A0" opacity="0.9"/>
            <text x="32" y="15" font-size="8" fill="#FFF" text-anchor="middle" font-family="sans-serif" font-weight="bold">COMMON</text>
        </g>
        <g transform="translate(10, 15)">
            <rect width="45" height="22" rx="4" fill="#333" opacity="0.8"/>
            <text x="22" y="15" font-size="9" fill="#FFF" text-anchor="middle" font-family="sans-serif">Gen 1</text>
        </g>
</svg>